<svg width="33" height="21" viewBox="0 0 33 21" fill="none" xmlns="http://www.w3.org/2000/svg">
<g clip-path="url(#clip0_1810_200)">
<path d="M32.6955 13.562V13.2535H32.5944L32.4774 13.4652L32.3611 13.2535H32.2593V13.562H32.3311V13.3296L32.4405 13.5301H32.5149L32.6243 13.3291V13.562H32.6955ZM32.0538 13.562V13.3064H32.1833V13.255H31.8525V13.3064H31.982V13.562H32.0532H32.0538Z" fill="#0099DF"/>
<path d="M21.2001 14.8852H12.448V2.39026H21.2001V14.8852Z" fill="#6C6BBD"/>
<path d="M13.0034 8.6377C13.0034 6.103 14.4973 3.84516 16.8237 2.39014C15.0627 1.28709 12.8847 0.688463 10.6421 0.691171C5.11795 0.691171 0.640137 4.24888 0.640137 8.6377C0.640137 13.0265 5.11795 16.5844 10.642 16.5844C12.8846 16.587 15.0627 15.9884 16.8237 14.8853C14.4973 13.4302 13.0034 11.1724 13.0034 8.6377Z" fill="#EB001B"/>
<path d="M33.0077 8.63794C33.0077 13.0268 28.5299 16.5846 23.0059 16.5846C20.7631 16.5872 18.5848 15.9885 16.8235 14.8855C19.15 13.4305 20.6446 11.1726 20.6446 8.63794C20.6446 6.10324 19.15 3.84553 16.8236 2.39051C18.5849 1.28749 20.7631 0.688828 23.0059 0.691415C28.5299 0.691415 33.0079 4.24913 33.0079 8.63794" fill="#0099DF"/>
<path d="M24.1616 18.4164C24.2779 18.4164 24.4452 18.4341 24.5731 18.474L24.3951 18.9065C24.2802 18.87 24.1574 18.852 24.0338 18.8534C23.656 18.8534 23.4675 19.0474 23.4675 19.3961V20.5794H22.8894V18.4691H23.4618V18.7249C23.612 18.5394 23.8288 18.4156 24.1621 18.4156M22.0263 18.888H21.0819V19.8413C21.0819 20.053 21.1761 20.1944 21.4654 20.1944C21.6155 20.1944 21.8043 20.1546 21.976 20.0751L22.1427 20.4677C21.9595 20.5692 21.6709 20.6314 21.4209 20.6314C20.7371 20.6314 20.4986 20.3399 20.4986 19.8498V18.8878H19.9592V18.4691H20.4984V17.829H21.0809V18.4691H22.0254V18.8884L22.0263 18.888ZM14.6306 19.3378C14.6923 19.0332 14.9251 18.8255 15.3365 18.8255C15.7087 18.8255 15.9477 19.011 16.0087 19.3378H14.6301H14.6306ZM16.6091 19.5233C16.6034 18.8655 16.0913 18.4154 15.3471 18.4154C14.5693 18.4154 14.0248 18.8652 14.0248 19.5233C14.0248 20.1938 14.5911 20.6308 15.3864 20.6308C15.7863 20.6308 16.1527 20.5515 16.4751 20.3351L16.1915 19.9952C15.9695 20.1366 15.6859 20.216 15.4194 20.216C15.0472 20.216 14.7084 20.0791 14.6251 19.6997H16.5973C16.603 19.6421 16.6088 19.585 16.6088 19.5233M19.1476 19.0076C18.9866 18.9278 18.6591 18.8263 18.3201 18.8263C18.0035 18.8263 17.8145 18.9192 17.8145 19.0738C17.8145 19.2152 18.0142 19.2547 18.2642 19.281L18.5363 19.3119C19.1144 19.3786 19.4642 19.5726 19.4642 19.9434C19.4642 20.345 19.0198 20.6319 18.2533 20.6319C17.8195 20.6319 17.4196 20.5435 17.1029 20.358L17.3751 20.0003C17.5692 20.1196 17.859 20.2211 18.259 20.2211C18.6533 20.2211 18.8644 20.1287 18.8644 19.965C18.8644 19.8462 18.7143 19.7795 18.3976 19.7447L18.1255 19.7138C17.5309 19.6471 17.2084 19.4354 17.2084 19.0914C17.2084 18.6722 17.6422 18.416 18.3143 18.416C18.7366 18.416 19.1201 18.4913 19.3974 18.6368L19.1476 19.0076ZM26.2736 18.852C26.1601 18.8513 26.0476 18.8681 25.9422 18.9015C25.8431 18.9334 25.7532 18.9808 25.6777 19.0409C25.6017 19.1025 25.542 19.1755 25.5021 19.2556C25.4173 19.433 25.4173 19.6289 25.5021 19.8062C25.542 19.8864 25.6017 19.9594 25.6777 20.021C25.7531 20.0812 25.8431 20.1286 25.9422 20.1605C26.1555 20.2266 26.3923 20.2266 26.6056 20.1605C26.7052 20.1287 26.7956 20.0813 26.8714 20.021C26.9483 19.9597 27.0089 19.8867 27.0494 19.8064C27.1342 19.629 27.1342 19.4331 27.0494 19.2557C27.0089 19.1753 26.9484 19.1023 26.8714 19.0409C26.7956 18.9807 26.7051 18.9332 26.6056 18.9015C26.5002 18.868 26.3877 18.8512 26.2742 18.852M26.2742 18.416C26.4702 18.4144 26.6647 18.4434 26.8467 18.5013C27.0164 18.555 27.1711 18.6346 27.302 18.7358C27.4309 18.8362 27.5332 18.9561 27.6028 19.0884C27.7477 19.3722 27.7477 19.6897 27.6028 19.9735C27.5332 20.1059 27.4309 20.226 27.302 20.3265C27.1709 20.4275 27.0162 20.5072 26.8467 20.561C26.4784 20.6741 26.0702 20.6741 25.7019 20.561C25.533 20.5072 25.379 20.4276 25.2489 20.3265C25.1208 20.2257 25.019 20.1057 24.9494 19.9735C24.8044 19.6897 24.8044 19.3722 24.9494 19.0884C25.0191 18.9555 25.1216 18.835 25.251 18.7342C25.3803 18.6333 25.5338 18.5542 25.7024 18.5013C25.8844 18.4434 26.0789 18.4144 26.2749 18.416M11.2543 19.524C11.2543 19.1531 11.5601 18.8485 12.0601 18.8485C12.5377 18.8485 12.8602 19.14 12.8602 19.524C12.8602 19.9079 12.5377 20.1989 12.0603 20.1989C11.5603 20.1989 11.2545 19.8948 11.2545 19.524M13.4047 19.524V18.4691H12.8272V18.7249C12.6434 18.5349 12.3661 18.4156 11.9883 18.4156C11.244 18.4156 10.6604 18.8783 10.6604 19.5236C10.6604 20.1688 11.2428 20.6315 11.9883 20.6315C12.3661 20.6315 12.6434 20.5123 12.8272 20.3223V20.5785H13.4047V19.5236V19.524ZM10.1491 20.5789V19.2549C10.1491 18.7562 9.74911 18.4208 9.10482 18.4163C8.76585 18.4118 8.41539 18.4956 8.17123 18.7916C7.98807 18.5576 7.69861 18.4163 7.29298 18.4163C7.00999 18.4163 6.73202 18.4824 6.51521 18.7295V18.4691H5.93774V20.5789H6.52022V19.4092C6.52022 19.0429 6.77587 18.8484 7.17017 18.8484C7.55364 18.8484 7.74829 19.047 7.74829 19.4047V20.5789H8.33077V19.4092C8.33077 19.0429 8.5979 18.8484 8.98072 18.8484C9.37567 18.8484 9.56449 19.047 9.56449 19.4047V20.5789H10.147H10.1491ZM28.3606 20.4201V20.4715H28.4213C28.4327 20.4718 28.4439 20.4696 28.4537 20.465C28.4578 20.4629 28.4611 20.46 28.4634 20.4565C28.4656 20.453 28.4667 20.4492 28.4665 20.4453C28.4667 20.4415 28.4656 20.4377 28.4634 20.4343C28.4611 20.431 28.4578 20.4281 28.4537 20.4262C28.444 20.4213 28.4327 20.419 28.4213 20.4196L28.3606 20.4201ZM28.4216 20.3837C28.4475 20.3825 28.4731 20.3884 28.4941 20.4004C28.5025 20.4059 28.5092 20.4129 28.5136 20.4208C28.518 20.4287 28.5201 20.4373 28.5195 20.4459C28.5199 20.4534 28.5183 20.4607 28.5147 20.4676C28.5112 20.4745 28.5059 20.4807 28.4991 20.4858C28.4829 20.4969 28.4626 20.5036 28.4412 20.5049L28.5221 20.5782H28.4598L28.3854 20.5055H28.3613V20.5782H28.308V20.3837H28.4216ZM28.4055 20.6449C28.4328 20.6451 28.4598 20.6407 28.4849 20.6321C28.509 20.6238 28.531 20.612 28.5496 20.5972C28.5683 20.5825 28.5831 20.565 28.5935 20.5458C28.604 20.5256 28.6094 20.504 28.6094 20.4821C28.6094 20.4603 28.604 20.4386 28.5935 20.4184C28.583 20.3993 28.5681 20.3819 28.5496 20.367C28.5311 20.3523 28.5091 20.3406 28.4849 20.3327C28.4598 20.324 28.4328 20.3196 28.4055 20.3199C28.3777 20.3197 28.3501 20.324 28.3246 20.3327C28.2998 20.3404 28.2773 20.3521 28.2584 20.367C28.2298 20.3904 28.2104 20.4199 28.2027 20.4518C28.1951 20.4838 28.1994 20.5169 28.2152 20.547C28.225 20.5663 28.2397 20.5838 28.2584 20.5984C28.2774 20.6133 28.2999 20.6251 28.3246 20.6332C28.3501 20.6419 28.3777 20.6463 28.4055 20.6461M28.4055 20.2733C28.4413 20.2731 28.4769 20.2788 28.5098 20.29C28.5419 20.3004 28.5711 20.3157 28.5957 20.335C28.6202 20.354 28.6397 20.3767 28.653 20.4017C28.6669 20.4274 28.674 20.4551 28.674 20.4831C28.674 20.5111 28.6669 20.5387 28.653 20.5645C28.6395 20.5893 28.62 20.6117 28.5957 20.6307C28.571 20.65 28.5418 20.6654 28.5098 20.6762C28.4769 20.6874 28.4413 20.6931 28.4055 20.6929C28.3699 20.693 28.3346 20.6877 28.3016 20.677C28.2687 20.6663 28.2387 20.6506 28.2134 20.6308C28.1891 20.6119 28.1696 20.5894 28.1561 20.5646C28.1423 20.5389 28.1352 20.5112 28.1352 20.4833C28.1352 20.4553 28.1423 20.4277 28.1561 20.402C28.1695 20.377 28.1889 20.3543 28.2134 20.3353C28.2379 20.3158 28.2671 20.3005 28.2993 20.2903C28.3329 20.279 28.369 20.2734 28.4055 20.2736" fill="white"/>
</g>
<defs>
<clipPath id="clip0_1810_200">
<rect width="32.36" height="20" fill="white" transform="translate(0.640137 0.691406)"/>
</clipPath>
</defs>
</svg>
